PathFileType	4	(X/Y/Z)	C:/Users/opensim2020/Desktop/walking_exp_matlab/subject02_walking11_straight_04.trc	
DataRate	CameraRate	NumFrames	NumMarkers	Units	OrigDataRate	OrigDataStartFrame	OrigNumFrames	
100.00	100.00	9	42	mm	100.00	3283	227	
Frame#	Time	LFHD			RFHD			LBHD			RBHD			C7			T10			CLAV			STRN			RBAK			LSHO			LUPA			LELB			LFRM			LWRA			LWRB			LFIN			RSHO			RUPA			RELB			RFRM			RWRA			RWRB			RFIN			LASI			RASI			LPSI			RPSI			LTHI			LKNE			LTIB			LANK			LHEE			LTOE			RTHI			RKNE			RTIB			RANK			RHEE			RTOE			*39			*40			*41			
		X1	Y1	Z1	X2	Y2	Z2	X3	Y3	Z3	X4	Y4	Z4	X5	Y5	Z5	X6	Y6	Z6	X7	Y7	Z7	X8	Y8	Z8	X9	Y9	Z9	X10	Y10	Z10	X11	Y11	Z11	X12	Y12	Z12	X13	Y13	Z13	X14	Y14	Z14	X15	Y15	Z15	X16	Y16	Z16	X17	Y17	Z17	X18	Y18	Z18	X19	Y19	Z19	X20	Y20	Z20	X21	Y21	Z21	X22	Y22	Z22	X23	Y23	Z23	X24	Y24	Z24	X25	Y25	Z25	X26	Y26	Z26	X27	Y27	Z27	X28	Y28	Z28	X29	Y29	Z29	X30	Y30	Z30	X31	Y31	Z31	X32	Y32	Z32	X33	Y33	Z33	X34	Y34	Z34	X35	Y35	Z35	X36	Y36	Z36	X37	Y37	Z37	X38	Y38	Z38	X39	Y39	Z39	X40	Y40	Z40	X41	Y41	Z41	X42	Y42	Z42	

57	0.560	-1002.00256	362.82065	1738.53931	-1144.37476	365.68991	1713.98975	-986.77197	489.68909	1658.11633	-1128.63672	504.55554	1632.17932	-1058.16406	540.69470	1515.30042	-1060.12793	593.76892	1240.90247	-1043.12024	400.92770	1447.16479	-1059.68774	348.43951	1275.26086	-1125.19202	597.72687	1344.79785	-875.90564	477.57214	1486.60010	-799.33661	516.70020	1289.04419	-794.59558	541.32025	1149.63916	-781.28528	551.93317	1018.27094	-806.62372	511.38272	885.61432	-779.07257	560.34656	894.50494	-775.36932	549.86584	828.03992	-1241.06482	455.27560	1486.30542	-1334.58740	452.34079	1297.68750	-1362.95264	402.67136	1159.22803	-1373.46338	329.48340	1061.55823	-1344.70142	237.56471	966.71924	-1380.78894	274.86392	943.41705	-1378.93896	213.70636	905.21301	-940.43018	346.97089	981.61877	-1197.75061	376.15536	960.30011	-999.63751	564.49707	1023.35571	-1112.02686	581.66107	1025.98596	-871.55670	333.55573	680.02869	-911.41455	295.58383	484.48056	-913.99860	292.89975	290.60614	-946.13556	219.23558	79.29667	-1001.06036	243.05605	45.82658	-937.25232	62.25066	74.34752	-1234.15173	527.46545	668.92535	-1186.94482	580.95764	465.55307	-1175.82983	677.01300	302.14871	-1129.09814	742.43127	120.58006	-1066.26196	778.33411	74.07381	-1165.07690	607.32977	40.13427	-1092.14343	469.65051	1795.59583	-3357.32642	2845.90063	1034.24121			 
58	0.570	-1001.46973	355.27133	1738.16284	-1143.69019	358.46243	1713.25293	-985.47113	481.93597	1657.40930	-1127.48181	496.96722	1630.92786	-1056.49036	532.46625	1514.11438	-1058.17700	584.45917	1239.47107	-1041.96631	392.38748	1446.58923	-1058.69910	339.29898	1274.82556	-1123.68494	589.33832	1343.52747	-874.46497	468.45303	1485.68115	-797.57880	506.50311	1287.81152	-793.00043	530.76978	1148.40674	-779.92273	540.75311	1016.78070	-805.64075	499.62100	884.44159	-777.71545	548.21130	893.23798	-774.26385	537.34991	826.61066	-1239.80078	447.75177	1485.48962	-1332.76648	445.23111	1296.53162	-1360.53271	396.11481	1157.68579	-1371.61218	323.73090	1059.65039	-1343.27393	232.66025	964.05054	-1379.07288	270.14896	940.98938	-1377.72168	209.32887	902.41089	-939.53552	336.17630	981.61096	-1196.60156	366.50320	959.74042	-997.47882	553.98395	1022.28876	-1109.81812	571.74310	1024.86169	-870.22107	324.03448	678.85004	-910.64063	287.59302	482.86505	-913.58563	287.48886	288.82117	-946.05231	217.07127	76.33983	-1001.17334	241.75827	43.18857	-937.79871	60.20811	70.00387	-1233.42358	520.15765	669.02185	-1187.04370	574.60962	465.84906	-1175.77588	673.01721	303.87570	-1129.48596	741.01514	123.13735	-1066.55322	777.41882	77.30911	-1165.41626	607.09668	40.23937	-1091.27161	462.57718	1794.36060	-3357.35693	2845.74805	1034.36499			 
59	0.580	-1001.21326	347.59824	1737.49390	-1143.08728	351.13190	1712.30237	-984.38428	474.01059	1656.58191	-1126.13379	489.35526	1629.58875	-1054.69604	524.15051	1512.83301	-1056.07251	575.08185	1237.94702	-1040.72656	383.79517	1445.91724	-1057.66638	330.01828	1274.33582	-1121.14282	580.70044	1341.84644	-872.91772	459.29153	1484.71021	-795.68195	496.59195	1286.77332	-791.25513	519.90460	1147.13220	-778.29333	529.18292	1015.43719	-804.59882	487.68625	883.56909	-776.20825	536.18781	891.82959	-772.92444	524.94055	825.29376	-1238.29407	440.30936	1484.37927	-1331.25928	438.16272	1295.46216	-1358.35779	389.62595	1156.26672	-1369.91016	318.07013	1057.63147	-1342.07019	227.51230	961.21967	-1377.73804	265.50281	938.56006	-1376.41333	205.16171	899.14929	-938.47058	325.00192	981.44183	-1195.40369	356.68060	959.17175	-995.07349	543.12115	1021.12665	-1107.36121	561.57428	1023.58887	-868.91827	314.72659	677.53290	-909.87671	280.02573	480.94244	-912.91272	282.46759	286.80386	-945.75592	215.35995	73.18382	-1000.64490	240.60405	40.30217	-938.21844	58.43863	65.60402	-1232.69263	512.50543	669.19373	-1187.28198	567.85876	466.23709	-1175.80420	668.76593	305.76572	-1129.90161	739.43445	125.85927	-1066.95667	776.28333	80.89809	-1165.77966	606.96893	40.26762	-1091.23169	455.33768	1793.48169	-3360.27515	2845.20239	1034.21606			 
60	0.590	-1000.09589	340.12830	1737.04272	-1142.26233	343.85135	1711.38599	-983.01276	466.06744	1655.52612	-1124.69849	481.68048	1628.20789	-1052.87622	515.89709	1511.46216	-1053.64868	565.57355	1236.24841	-1039.55603	375.25140	1445.17334	-1056.60559	320.77267	1273.87683	-1118.94092	571.44177	1340.00867	-871.43341	449.87100	1483.55933	-793.60840	485.53809	1285.26526	-788.89929	508.88739	1145.83630	-776.44568	517.55304	1014.23071	-803.52411	475.47443	882.42462	-774.68298	523.34943	890.50592	-771.38196	512.30371	824.07672	-1236.68298	432.83713	1483.24524	-1328.79492	431.10049	1293.98389	-1356.08936	383.21796	1154.75330	-1368.38098	312.64148	1055.57434	-1340.61902	222.86729	957.95178	-1376.27271	261.13165	935.92053	-1375.38208	201.31400	895.77826	-937.53174	313.40677	981.23700	-1194.17896	346.98032	958.53864	-992.38660	531.94049	1019.84106	-1104.57800	551.13684	1022.18896	-867.70306	305.16501	675.93567	-908.76855	273.02005	478.69333	-912.05524	277.93140	284.43857	-945.11072	213.62543	69.66370	-999.42560	239.73018	37.80390	-938.57544	56.57459	60.82778	-1232.05298	504.55115	669.36078	-1187.80908	560.73108	466.66183	-1175.87439	664.25537	307.74652	-1130.30298	737.60693	128.75308	-1067.27393	774.81042	84.48759	-1166.06641	606.82843	40.04181	-1089.84265	448.25159	1792.30896	-3360.23926	2845.15405	1034.27271			 
61	0.600	-999.16064	332.53528	1736.41785	-1141.12988	336.61359	1710.52795	-981.65192	458.02295	1654.42297	-1123.20691	474.01477	1626.77759	-1050.92590	507.65875	1510.02173	-1051.03101	555.95447	1234.43640	-1038.13062	366.53696	1444.34436	-1055.34619	311.27222	1273.34692	-1116.23914	563.26086	1338.12329	-869.64874	440.60480	1482.60632	-791.70630	475.44589	1284.11255	-786.78473	497.68335	1144.42334	-774.36395	505.21460	1012.68372	-802.16235	463.00992	881.29730	-773.02466	510.75583	888.84839	-769.97314	499.17685	822.55542	-1235.09607	425.40195	1481.97839	-1326.74902	424.10684	1292.58862	-1353.75916	376.94083	1153.09546	-1366.80896	307.45157	1053.32239	-1339.54309	218.17824	955.01813	-1374.86731	256.98068	933.15015	-1373.83179	197.63306	892.10248	-936.46118	301.49002	980.89026	-1193.15808	336.44376	958.08124	-989.49200	520.55060	1018.44171	-1101.52588	540.50342	1020.65796	-866.51752	295.52164	674.23596	-907.32178	266.89694	476.26270	-911.54919	273.65155	281.84482	-945.50201	210.88892	67.59808	-1000.40356	237.53142	39.00740	-937.71625	53.16216	52.80951	-1231.39600	496.21591	669.49304	-1188.20007	553.23047	467.05289	-1176.09949	659.48230	309.86130	-1130.91919	735.78912	132.11255	-1067.95825	773.17194	88.64634	-1166.48328	606.62531	40.06844	-1088.66125	441.12167	1790.98828	-3357.25415	2845.97729	1034.26074			 
62	0.610	-998.10034	324.50406	1736.14844	-1139.98376	329.20056	1709.87085	-980.00171	449.93854	1653.49524	-1121.51135	466.15900	1625.47681	-1048.86816	499.50195	1508.64905	-1048.02722	546.21973	1232.95911	-1036.61365	357.79382	1443.61450	-1054.14722	301.83411	1273.08057	-1113.15991	553.75806	1336.56543	-867.80988	431.18533	1481.58655	-789.55853	464.89517	1282.90479	-784.62689	486.43390	1142.99146	-772.71539	493.29642	1011.19513	-801.11377	450.39105	879.80640	-771.32806	498.01981	887.47607	-768.32727	486.12366	821.31403	-1233.36597	418.03030	1480.68262	-1324.56262	417.19943	1291.03076	-1351.65991	370.76865	1151.46997	-1364.52295	302.11163	1051.05127	-1338.11462	213.91780	951.35065	-1373.44116	253.06451	930.28748	-1372.52649	194.24811	888.27405	-935.45276	289.56781	980.43848	-1192.01392	325.89819	957.51068	-986.30621	508.95157	1016.98694	-1098.24011	529.89471	1018.98590	-865.16895	286.35535	672.81116	-905.52533	261.76288	474.42285	-911.63873	268.71118	279.56827	-945.12750	205.98645	68.26216	-999.44196	233.78362	41.00216	-935.72113	47.49730	45.89193	-1230.71216	487.58923	669.54321	-1188.58362	545.13251	467.31808	-1176.37341	654.28949	312.14093	-1131.67407	733.59912	135.62991	-1068.60767	771.50098	93.15055	-1166.89587	606.42218	40.13741	-1087.35339	433.95465	1789.85583	-3357.59644	2845.97095	1034.43457			 
63	0.620	-996.98926	316.66351	1736.28577	-1138.86462	321.68158	1709.79102	-978.28180	441.64838	1652.99744	-1119.72803	458.20096	1624.80127	-1046.53259	491.53152	1507.62805	-1044.85730	536.51605	1232.15588	-1035.12183	349.12738	1443.24219	-1052.94946	292.69931	1273.20056	-1109.73267	544.94525	1335.35632	-865.72748	421.74033	1480.69470	-787.31293	454.12543	1281.32922	-782.40741	474.77094	1141.42297	-770.48413	480.39142	1009.38159	-799.85852	437.63098	878.78461	-769.60925	484.40042	885.97003	-766.70728	472.40723	819.76270	-1231.93079	410.76181	1479.63818	-1322.38184	410.38641	1289.40674	-1349.18726	364.73184	1149.63586	-1362.53687	297.20313	1048.37708	-1336.71362	210.02386	947.86383	-1372.02625	249.36761	927.32947	-1371.25281	191.20033	884.46027	-934.28375	277.68692	980.03558	-1190.65002	315.23511	956.81781	-982.92773	497.48172	1015.92450	-1094.79321	519.33417	1017.24609	-863.72241	277.64621	673.06903	-903.71698	256.09354	473.86316	-912.79608	261.74423	279.10489	-944.23572	200.13765	68.51466	-999.26416	229.75450	42.03856	-933.64392	42.65071	42.81781	-1229.93701	478.36829	669.52637	-1189.08801	536.52185	467.90594	-1176.30371	648.67462	314.74878	-1132.68262	730.94409	139.60805	-1069.66077	769.16241	98.23942	-1167.34570	606.10284	40.22840	-1085.88367	426.63269	1789.19482	-3355.33228	2846.61377	1034.38525			 
64	0.630	-995.94019	308.63510	1736.86401	-1137.62793	314.17917	1710.19580	-976.50580	433.29291	1653.47217	-1117.80066	450.32257	1624.82910	-1044.03748	483.37463	1507.28687	-1041.95117	526.70074	1231.72791	-1033.43103	340.63965	1443.36377	-1051.62451	283.67126	1273.67908	-1106.95996	536.50171	1334.63745	-863.44843	412.19949	1480.04419	-785.06226	443.10092	1279.96228	-780.03143	462.86749	1139.98877	-768.63104	468.35706	1008.20575	-798.55652	424.57751	877.62555	-767.87244	471.19141	884.57928	-765.00134	458.64966	818.49634	-1230.35876	403.76480	1478.62939	-1320.61230	403.70309	1287.90417	-1346.66760	358.76266	1147.88159	-1360.59265	292.37640	1046.00415	-1335.19641	206.42030	944.24561	-1370.52002	246.03014	924.42841	-1370.06055	188.55721	880.67401	-933.15442	266.38873	979.45233	-1189.09851	304.33636	956.10583	-979.70538	486.22211	1015.83118	-1091.45825	508.95532	1015.69830	-862.02441	269.62900	674.52002	-902.32697	248.23517	475.21573	-911.21423	254.05576	280.71936	-944.68781	198.62628	67.93738	-999.02350	229.74716	42.36715	-934.66052	41.91471	40.09288	-1229.12695	468.63846	669.74860	-1189.60901	527.04279	468.39352	-1176.75842	642.23773	317.63657	-1133.83777	727.69385	144.06560	-1070.40540	766.36102	104.01540	-1167.76770	605.68188	40.26272	-1084.52063	419.20642	1789.46826	-3356.95020	2845.97583	1034.21973			 
65	0.640	-994.61340	300.69376	1737.83313	-1136.31042	306.62805	1710.83118	-974.69977	425.01511	1654.21838	-1115.81860	442.48367	1625.23792	-1041.65344	474.87881	1507.69312	-1039.55432	516.96100	1231.43933	-1031.97107	332.32617	1443.93152	-1050.64209	274.69342	1274.66846	-1103.75623	527.89368	1334.05505	-861.08710	402.63803	1479.81641	-782.75293	431.99823	1279.04028	-777.70569	450.67239	1138.79675	-766.63306	455.14178	1006.76123	-797.27502	411.01147	876.90948	-766.03888	457.64157	883.42010	-763.31244	444.42099	817.63843	-1228.98962	396.71042	1477.98560	-1318.19629	397.14212	1286.45776	-1344.00452	352.81573	1146.44690	-1358.94214	287.96347	1043.82251	-1334.00708	202.94742	940.92664	-1368.92126	243.19601	921.71539	-1368.84802	186.29529	876.97992	-931.60120	254.94963	979.48236	-1187.22485	293.69537	955.64807	-976.77380	475.24237	1017.08807	-1088.54968	498.47769	1014.77777	-861.08167	261.41193	676.20868	-901.41687	238.10593	477.51550	-906.16846	246.96913	282.34058	-945.41644	199.24870	68.70042	-998.76434	229.83925	42.27888	-938.46588	41.04599	38.87463	-1228.30688	458.46344	670.24194	-1190.50732	516.67010	469.17950	-1177.23181	634.70630	320.78543	-1135.11743	723.87097	149.05354	-1071.40308	762.84546	110.30215	-1168.25122	605.18115	40.36958	-1082.76233	411.63831	1789.88831						 
